<?xml version="1.0" encoding="utf-8"?>
<!-- Generator: Adobe Illustrator 19.0.0, SVG Export Plug-In . SVG Version: 6.00 Build 0)  -->
<svg version="1.1" id="Layer_1" xmlns="http://www.w3.org/2000/svg" xmlns:xlink="http://www.w3.org/1999/xlink" x="0px" y="0px"
	 viewBox="0 0 500 500" style="enable-background:new 0 0 500 500;" xml:space="preserve">
<style type="text/css">
	.st0{fill:#007ACC;}
</style>
<g id="XMLID_1_">
	<path id="XMLID_2_" class="st0" d="M113,213.7H94.1v58.7h-7.7v-58.7H67.5v-6.9H113V213.7z M148.7,225.5l-21.6,54.4
		c-3.8,9.7-9.2,14.5-16.2,14.5c-2,0-3.6-0.2-4.8-0.6v-6.7c1.6,0.6,3.1,0.8,4.4,0.8c3.8,0,6.6-2.3,8.5-6.8l3.7-8.9l-18.2-46.8h8.3
		l12.7,36c0.1,0.5,0.5,1.6,0.9,3.6h0.2c0.1-0.7,0.5-1.8,0.9-3.5l13.3-36.1H148.7z M160.9,265.5h-0.2v28.3h-7.5v-68.4h7.5v8.2h0.2
		c3.7-6.2,9.1-9.4,16.2-9.4c6,0,10.7,2.1,14.1,6.2c3.3,4.2,5.1,9.8,5.1,16.9c0,7.9-2,14.1-5.8,18.8c-3.8,4.7-9,7-15.6,7
		C169,273.5,164.3,270.8,160.9,265.5z M160.8,246.7v6.6c0,3.9,1.3,7.2,3.8,9.8s5.7,4,9.6,4c4.5,0,8.1-1.7,10.7-5.2
		c2.5-3.5,3.8-8.3,3.8-14.5c0-5.2-1.2-9.4-3.6-12.2c-2.4-3-5.7-4.4-9.8-4.4c-4.4,0-7.9,1.5-10.5,4.5
		C162.1,238.3,160.8,242.1,160.8,246.7z M242.2,250.8h-33c0.1,5.2,1.5,9.2,4.2,12.1c2.7,2.9,6.4,4.3,11.1,4.3
		c5.3,0,10.2-1.7,14.5-5.2v7c-4.2,3-9.6,4.5-16.3,4.5c-6.6,0-11.8-2.1-15.6-6.4c-3.8-4.3-5.7-10.3-5.7-17.9c0-7.3,2.1-13.3,6.2-17.8
		c4.2-4.6,9.2-6.9,15.4-6.9s10.9,2,14.2,6c3.3,3.9,5.1,9.5,5.1,16.5L242.2,250.8z M234.5,244.4c0-4.4-1-7.7-3.1-10.2
		c-2.1-2.4-5-3.6-8.5-3.6c-3.6,0-6.6,1.3-9,3.8c-2.4,2.5-4,5.9-4.6,9.9H234.5z M245.9,270v-5.2c4.7,3,9.5,4.5,14.3,4.5
		c5.1,0,9-1,11.7-3.2c2.7-2.2,3.9-5.1,3.9-8.9c0-3.3-0.9-6-2.7-8.1c-1.7-2-5.7-4.7-11.5-8.2c-6.7-3.9-10.9-7.2-12.6-9.7
		c-1.7-2.7-2.7-5.7-2.7-9c0-4.6,1.8-8.5,5.4-11.8c3.6-3.2,8.4-4.8,14.4-4.8c3.9,0,7.9,0.7,11.7,2v4.7c-3.8-1.7-8-2.7-12.4-2.7
		c-4.5,0-8,1.2-10.6,3.3c-2.7,2.3-3.9,5.1-3.9,8.5c0,3.3,0.9,6,2.7,8c1.7,2,5.7,4.7,11.5,8.1c6.1,3.5,10.2,6.6,12.2,9.2
		c2.1,2.7,3,5.8,3,9.4c0,5.1-1.7,9.1-5.2,12.4c-3.5,3.2-8.4,4.7-14.8,4.7c-2.3,0-4.8-0.3-7.9-1C249.6,271.5,247.4,271,245.9,270z
		 M319.5,270.3c-3.5,2.1-7.6,3.2-12.5,3.2c-6.4,0-11.5-2.2-15.5-6.6c-3.9-4.4-5.9-10-5.9-17.2c0-7.4,2.2-13.5,6.6-18.2
		c4.4-4.7,10-7.2,17-7.2c3.6,0,7,0.7,10.4,2.2v4.7c-3.3-2.1-7-3.1-11-3.1c-5.5,0-9.9,2-13.4,5.9c-3.5,3.9-5.1,9.1-5.1,15.4
		c0,6.1,1.6,11,4.7,14.7c3.1,3.7,7.3,5.5,12.4,5.5c4.7,0,8.8-1.3,12.2-3.7V270.3z M347.4,229.9c-1.4-1-3-1.5-5-1.5
		c-3.7,0-6.8,2-9.2,5.8c-2.5,3.8-3.7,9.2-3.7,16.3v22.1h-4.2v-47h4.2v10.4h0.2c1-3.6,2.8-6.4,5.1-8.3c2.3-2,5-3,8.1-3
		c1.7,0,3.3,0.2,4.6,0.8v4.5H347.4z M354.1,213.7c-0.9,0-1.7-0.3-2.4-1c-0.7-0.7-1-1.5-1-2.5s0.3-1.8,1-2.4c0.7-0.6,1.5-0.9,2.4-0.9
		c0.9,0,1.7,0.3,2.5,0.9c0.7,0.6,1,1.4,1,2.4c0,0.9-0.3,1.8-1,2.5C355.8,213.3,355,213.7,354.1,213.7z M352,272.3v-46.9h4.2v46.9
		H352z M370.6,264h-0.2v29.9h-4.2v-68.5h4.2v9.7h0.2c1.7-3.5,4-6.1,7.2-8s6.6-2.8,10.3-2.8c6,0,10.6,2.1,14,6.1
		c3.3,4.2,5,9.7,5,16.7c0,7.9-2,14.2-5.8,19.1c-3.8,4.8-8.9,7.3-15.1,7.3C379.2,273.5,374,270.4,370.6,264z M370.4,246.6v5.9
		c0,4.7,1.5,8.8,4.4,12.1c3,3.3,6.8,5.1,11.7,5.1c4.7,0,8.7-2.1,11.7-6.1c3-4.2,4.5-9.5,4.5-16.2c0-5.9-1.4-10.5-4.2-14
		s-6.4-5.2-11-5.2c-5.4,0-9.7,1.8-12.7,5.5C371.8,237.5,370.4,241.6,370.4,246.6z M432.5,271.7c-2.2,1-4.3,1.5-6.1,1.5
		c-6.9,0-10.4-4.2-10.4-12.5v-31.3h-8.4v-3.8h8.4v-12.2l2.1-0.7l2.1-0.7v13.6h12.4v3.8h-12.4v30.9c0,3.2,0.5,5.5,1.5,7
		c1,1.5,2.8,2.2,5.2,2.2c1.7,0,3.6-0.6,5.7-1.7V271.7z"/>
</g>
</svg>
